solid ascii
  facet normal 0.000000e+000 -1.000000e+000 0.000000e+000
    outer loop
      vertex   -1.230000e+002 1.000026e+002 5.500000e+000
      vertex   -1.230000e+002 1.000026e+002 1.000000e-007
      vertex   -1.217000e+002 1.000026e+002 5.500000e+000
    endloop
  endfacet
  facet normal 0.000000e+000 -2.300247e-001 -0.000000e+000
    outer loop
      vertex   -1.217000e+002 1.000026e+002 5.500000e+000
      vertex   -1.230000e+002 1.000026e+002 1.000000e-007
      vertex   -1.217000e+002 1.000026e+002 1.000000e-007
    endloop
  endfacet
  facet normal -0.000000e+000 1.000000e+000 0.000000e+000
    outer loop
      vertex   -1.230000e+002 1.105000e+002 5.500000e+000
      vertex   -1.217000e+002 1.105000e+002 5.500000e+000
      vertex   -1.230000e+002 1.105000e+002 9.999999e-008
    endloop
  endfacet
  facet normal 0.000000e+000 9.731848e-001 0.000000e+000
    outer loop
      vertex   -1.230000e+002 1.105000e+002 9.999999e-008
      vertex   -1.217000e+002 1.105000e+002 5.500000e+000
      vertex   -1.217000e+002 1.105000e+002 1.000000e-007
    endloop
  endfacet
  facet normal 1.000000e+000 0.000000e+000 0.000000e+000
    outer loop
      vertex   -1.217000e+002 1.000026e+002 1.000000e-007
      vertex   -1.217000e+002 1.105000e+002 1.000000e-007
      vertex   -1.217000e+002 1.000026e+002 5.500000e+000
    endloop
  endfacet
  facet normal 4.640978e-001 -0.000000e+000 0.000000e+000
    outer loop
      vertex   -1.217000e+002 1.000026e+002 5.500000e+000
      vertex   -1.217000e+002 1.105000e+002 1.000000e-007
      vertex   -1.217000e+002 1.105000e+002 5.500000e+000
    endloop
  endfacet
  facet normal 1.000000e+000 0.000000e+000 -0.000000e+000
    outer loop
      vertex   -1.230000e+002 1.040000e+002 5.500000e+000
      vertex   -1.230000e+002 1.040000e+002 1.000000e+001
      vertex   -1.230000e+002 1.000026e+002 5.500000e+000
    endloop
  endfacet
  facet normal 6.645556e-001 0.000000e+000 -0.000000e+000
    outer loop
      vertex   -1.230000e+002 1.000026e+002 5.500000e+000
      vertex   -1.230000e+002 1.040000e+002 1.000000e+001
      vertex   -1.230000e+002 1.000000e+002 1.000000e+001
    endloop
  endfacet
  facet normal 1.057326e-003 0.000000e+000 0.000000e+000
    outer loop
      vertex   -1.230000e+002 1.000026e+002 5.500000e+000
      vertex   -1.230000e+002 1.000000e+002 1.000000e+001
      vertex   -1.230000e+002 1.000000e+002 9.999999e-008
    endloop
  endfacet
  facet normal 9.999999e-001 0.000000e+000 0.000000e+000
    outer loop
      vertex   -1.230000e+002 1.000000e+002 9.999999e-008
      vertex   -1.230000e+002 1.000026e+002 1.000000e-007
      vertex   -1.230000e+002 1.000026e+002 5.500000e+000
    endloop
  endfacet
  facet normal 1.000000e+000 0.000000e+000 0.000000e+000
    outer loop
      vertex   -1.230000e+002 1.075000e+002 5.500000e+000
      vertex   -1.230000e+002 1.105000e+002 5.500000e+000
      vertex   -1.230000e+002 1.075000e+002 1.000000e+001
    endloop
  endfacet
  facet normal 8.320503e-001 -0.000000e+000 0.000000e+000
    outer loop
      vertex   -1.230000e+002 1.075000e+002 1.000000e+001
      vertex   -1.230000e+002 1.105000e+002 5.500000e+000
      vertex   -1.230000e+002 1.105000e+002 1.000000e+001
    endloop
  endfacet
  facet normal 4.634940e-014 -1.057841e-014 -1.490286e-001
    outer loop
      vertex   -1.249888e+002 1.106490e+002 9.999999e-008
      vertex   -1.249556e+002 1.107948e+002 9.999999e-008
      vertex   -1.250000e+002 1.105000e+002 1.000000e-007
    endloop
  endfacet
  facet normal 7.451983e-015 -2.924646e-015 -7.473015e-002
    outer loop
      vertex   -1.250000e+002 1.105000e+002 1.000000e-007
      vertex   -1.249556e+002 1.107948e+002 9.999999e-008
      vertex   -1.249010e+002 1.109339e+002 9.999999e-008
    endloop
  endfacet
  facet normal 3.505462e-015 -2.023932e-015 -7.473253e-002
    outer loop
      vertex   -1.250000e+002 1.105000e+002 1.000000e-007
      vertex   -1.249010e+002 1.109339e+002 9.999999e-008
      vertex   -1.248262e+002 1.110633e+002 9.999999e-008
    endloop
  endfacet
  facet normal 9.423829e-015 -7.514698e-015 -3.653085e-001
    outer loop
      vertex   -1.248262e+002 1.110633e+002 9.999999e-008
      vertex   -1.247331e+002 1.111802e+002 9.999999e-008
      vertex   -1.250000e+002 1.105000e+002 1.000000e-007
    endloop
  endfacet
  facet normal 1.139155e-015 -1.227815e-015 -7.473699e-002
    outer loop
      vertex   -1.250000e+002 1.105000e+002 1.000000e-007
      vertex   -1.247331e+002 1.111802e+002 9.999999e-008
      vertex   -1.246235e+002 1.112818e+002 9.999999e-008
    endloop
  endfacet
  facet normal 6.894271e-016 -1.011151e-015 -7.472762e-002
    outer loop
      vertex   -1.250000e+002 1.105000e+002 1.000000e-007
      vertex   -1.246235e+002 1.112818e+002 9.999999e-008
      vertex   -1.245000e+002 1.113660e+002 9.999999e-008
    endloop
  endfacet
  facet normal 3.082690e-015 -6.401868e-015 -5.633512e-001
    outer loop
      vertex   -1.245000e+002 1.113660e+002 9.999999e-008
      vertex   -1.243653e+002 1.114309e+002 9.999999e-008
      vertex   -1.250000e+002 1.105000e+002 1.000000e-007
    endloop
  endfacet
  facet normal 2.228373e-016 -7.223403e-016 -7.472868e-002
    outer loop
      vertex   -1.250000e+002 1.105000e+002 1.000000e-007
      vertex   -1.243653e+002 1.114309e+002 9.999999e-008
      vertex   -1.242225e+002 1.114749e+002 9.999999e-008
    endloop
  endfacet
  facet normal 9.328369e-017 -6.190470e-016 -7.473176e-002
    outer loop
      vertex   -1.250000e+002 1.105000e+002 1.000000e-007
      vertex   -1.242225e+002 1.114749e+002 9.999999e-008
      vertex   -1.240747e+002 1.114972e+002 9.999999e-008
    endloop
  endfacet
  facet normal -5.130967e-015 -9.775707e-016 -8.053511e-001
    outer loop
      vertex   -1.250000e+002 1.105000e+002 1.000000e-007
      vertex   -1.240747e+002 1.114972e+002 9.999999e-008
      vertex   -1.230000e+002 1.000026e+002 1.000000e-007
    endloop
  endfacet
  facet normal 0.000000e+000 -7.976929e-018 -1.290443e-002
    outer loop
      vertex   -1.230000e+002 1.000026e+002 1.000000e-007
      vertex   -1.240747e+002 1.114972e+002 9.999999e-008
      vertex   -1.239253e+002 1.114972e+002 9.999999e-008
    endloop
  endfacet
  facet normal -5.853232e-017 -5.431027e-017 -8.023665e-002
    outer loop
      vertex   -1.230000e+002 1.000026e+002 1.000000e-007
      vertex   -1.239253e+002 1.114972e+002 9.999999e-008
      vertex   -1.230000e+002 1.105000e+002 9.999999e-008
    endloop
  endfacet
  facet normal 0.000000e+000 0.000000e+000 -7.473176e-002
    outer loop
      vertex   -1.230000e+002 1.105000e+002 9.999999e-008
      vertex   -1.239253e+002 1.114972e+002 9.999999e-008
      vertex   -1.237775e+002 1.114749e+002 9.999999e-008
    endloop
  endfacet
  facet normal 0.000000e+000 0.000000e+000 -7.472868e-002
    outer loop
      vertex   -1.230000e+002 1.105000e+002 9.999999e-008
      vertex   -1.237775e+002 1.114749e+002 9.999999e-008
      vertex   -1.236347e+002 1.114309e+002 9.999999e-008
    endloop
  endfacet
  facet normal 0.000000e+000 0.000000e+000 -5.000300e-001
    outer loop
      vertex   -1.236347e+002 1.114309e+002 9.999999e-008
      vertex   -1.235000e+002 1.113660e+002 9.999999e-008
      vertex   -1.230000e+002 1.105000e+002 9.999999e-008
    endloop
  endfacet
  facet normal 0.000000e+000 0.000000e+000 -7.472762e-002
    outer loop
      vertex   -1.230000e+002 1.105000e+002 9.999999e-008
      vertex   -1.235000e+002 1.113660e+002 9.999999e-008
      vertex   -1.233765e+002 1.112818e+002 9.999999e-008
    endloop
  endfacet
  facet normal 0.000000e+000 0.000000e+000 -7.473699e-002
    outer loop
      vertex   -1.230000e+002 1.105000e+002 9.999999e-008
      vertex   -1.233765e+002 1.112818e+002 9.999999e-008
      vertex   -1.232669e+002 1.111802e+002 9.999999e-008
    endloop
  endfacet
  facet normal 0.000000e+000 0.000000e+000 -2.947263e-001
    outer loop
      vertex   -1.232669e+002 1.111802e+002 9.999999e-008
      vertex   -1.231738e+002 1.110633e+002 9.999999e-008
      vertex   -1.230000e+002 1.105000e+002 9.999999e-008
    endloop
  endfacet
  facet normal 0.000000e+000 0.000000e+000 -7.473253e-002
    outer loop
      vertex   -1.230000e+002 1.105000e+002 9.999999e-008
      vertex   -1.231738e+002 1.110633e+002 9.999999e-008
      vertex   -1.230990e+002 1.109339e+002 9.999999e-008
    endloop
  endfacet
  facet normal 0.000000e+000 0.000000e+000 -7.473015e-002
    outer loop
      vertex   -1.230000e+002 1.105000e+002 9.999999e-008
      vertex   -1.230990e+002 1.109339e+002 9.999999e-008
      vertex   -1.230444e+002 1.107948e+002 9.999999e-008
    endloop
  endfacet
  facet normal 0.000000e+000 0.000000e+000 -7.472257e-002
    outer loop
      vertex   -1.230444e+002 1.107948e+002 9.999999e-008
      vertex   -1.230112e+002 1.106490e+002 9.999999e-008
      vertex   -1.230000e+002 1.105000e+002 9.999999e-008
    endloop
  endfacet
  facet normal 5.465733e-015 0.000000e+000 -1.000000e+000
    outer loop
      vertex   -1.217000e+002 1.105000e+002 1.000000e-007
      vertex   -1.217000e+002 1.000026e+002 1.000000e-007
      vertex   -1.230000e+002 1.105000e+002 9.999999e-008
    endloop
  endfacet
  facet normal -9.860761e-032 -8.318882e-017 -1.229011e-001
    outer loop
      vertex   -1.230000e+002 1.105000e+002 9.999999e-008
      vertex   -1.217000e+002 1.000026e+002 1.000000e-007
      vertex   -1.230000e+002 1.000026e+002 1.000000e-007
    endloop
  endfacet
  facet normal 0.000000e+000 2.715226e-012 -1.000000e+000
    outer loop
      vertex   -1.230000e+002 1.000000e+002 9.999999e-008
      vertex   -1.250000e+002 1.000000e+002 9.999999e-008
      vertex   -1.230000e+002 1.000026e+002 1.000000e-007
    endloop
  endfacet
  facet normal 3.489934e-015 6.649151e-016 -9.825740e-001
    outer loop
      vertex   -1.230000e+002 1.000026e+002 1.000000e-007
      vertex   -1.250000e+002 1.000000e+002 9.999999e-008
      vertex   -1.250000e+002 1.105000e+002 1.000000e-007
    endloop
  endfacet
  facet normal 9.962019e-001 7.465778e-002 -8.369359e-004
    outer loop
      vertex   -1.230112e+002 1.106490e+002 9.999999e-008
      vertex   -1.230007e+002 1.105374e+002 2.500000e+000
      vertex   -1.230000e+002 1.105000e+002 9.999999e-008
    endloop
  endfacet
  facet normal 7.477287e-003 1.403612e-004 -4.235165e-022
    outer loop
      vertex   -1.230000e+002 1.105000e+002 9.999999e-008
      vertex   -1.230007e+002 1.105374e+002 2.500000e+000
      vertex   -1.230007e+002 1.105374e+002 5.000000e+000
    endloop
  endfacet
  facet normal 2.492677e-003 4.679173e-005 1.058791e-022
    outer loop
      vertex   -1.230000e+002 1.105000e+002 9.999999e-008
      vertex   -1.230007e+002 1.105374e+002 5.000000e+000
      vertex   -1.230007e+002 1.105374e+002 7.500000e+000
    endloop
  endfacet
  facet normal 9.937145e-001 1.119441e-001 0.000000e+000
    outer loop
      vertex   -1.230007e+002 1.105374e+002 7.500000e+000
      vertex   -1.230007e+002 1.105374e+002 5.000000e+000
      vertex   -1.230174e+002 1.106859e+002 7.500000e+000
    endloop
  endfacet
  facet normal 9.927163e-001 1.118317e-001 -8.378226e-004
    outer loop
      vertex   -1.230007e+002 1.105374e+002 7.500000e+000
      vertex   -1.230174e+002 1.106859e+002 7.500000e+000
      vertex   -1.230112e+002 1.106490e+002 1.000000e+001
    endloop
  endfacet
  facet normal 9.748213e-001 2.224853e-001 8.390594e-004
    outer loop
      vertex   -1.230112e+002 1.106490e+002 1.000000e+001
      vertex   -1.230174e+002 1.106859e+002 7.500000e+000
      vertex   -1.230444e+002 1.107948e+002 1.000000e+001
    endloop
  endfacet
  facet normal 5.768090e-002 1.545514e-002 -5.007326e-005
    outer loop
      vertex   -1.230444e+002 1.107948e+002 1.000000e+001
      vertex   -1.230174e+002 1.106859e+002 7.500000e+000
      vertex   -1.230561e+002 1.108303e+002 7.500000e+000
    endloop
  endfacet
  facet normal 9.307714e-001 3.652956e-001 8.388507e-004
    outer loop
      vertex   -1.230444e+002 1.107948e+002 1.000000e+001
      vertex   -1.230561e+002 1.108303e+002 7.500000e+000
      vertex   -1.230990e+002 1.109339e+002 1.000000e+001
    endloop
  endfacet
  facet normal 5.473619e-002 2.388078e-002 -5.007918e-005
    outer loop
      vertex   -1.230990e+002 1.109339e+002 1.000000e+001
      vertex   -1.230561e+002 1.108303e+002 7.500000e+000
      vertex   -1.231159e+002 1.109673e+002 7.500000e+000
    endloop
  endfacet
  facet normal 8.659229e-001 4.999537e-001 8.391534e-004
    outer loop
      vertex   -1.230990e+002 1.109339e+002 1.000000e+001
      vertex   -1.231159e+002 1.109673e+002 7.500000e+000
      vertex   -1.231738e+002 1.110633e+002 1.000000e+001
    endloop
  endfacet
  facet normal 5.056300e-002 3.177297e-002 -5.010658e-005
    outer loop
      vertex   -1.231738e+002 1.110633e+002 1.000000e+001
      vertex   -1.231159e+002 1.109673e+002 7.500000e+000
      vertex   -1.231954e+002 1.110938e+002 7.500000e+000
    endloop
  endfacet
  facet normal 7.817664e-001 6.233920e-001 8.375544e-004
    outer loop
      vertex   -1.231738e+002 1.110633e+002 1.000000e+001
      vertex   -1.231954e+002 1.110938e+002 7.500000e+000
      vertex   -1.232669e+002 1.111802e+002 1.000000e+001
    endloop
  endfacet
  facet normal 4.526497e-002 3.895183e-002 -5.018978e-005
    outer loop
      vertex   -1.232669e+002 1.111802e+002 1.000000e+001
      vertex   -1.231954e+002 1.110938e+002 7.500000e+000
      vertex   -1.232929e+002 1.112071e+002 7.500000e+000
    endloop
  endfacet
  facet normal 6.800675e-001 7.329969e-001 8.379186e-004
    outer loop
      vertex   -1.232669e+002 1.111802e+002 1.000000e+001
      vertex   -1.232929e+002 1.112071e+002 7.500000e+000
      vertex   -1.233765e+002 1.112818e+002 1.000000e+001
    endloop
  endfacet
  facet normal 3.895183e-002 4.526497e-002 -5.008854e-005
    outer loop
      vertex   -1.233765e+002 1.112818e+002 1.000000e+001
      vertex   -1.232929e+002 1.112071e+002 7.500000e+000
      vertex   -1.234062e+002 1.113046e+002 7.500000e+000
    endloop
  endfacet
  facet normal 5.632769e-001 8.261328e-001 8.380004e-004
    outer loop
      vertex   -1.233765e+002 1.112818e+002 1.000000e+001
      vertex   -1.234062e+002 1.113046e+002 7.500000e+000
      vertex   -1.235000e+002 1.113660e+002 1.000000e+001
    endloop
  endfacet
  facet normal 3.177296e-002 5.056300e-002 -5.011335e-005
    outer loop
      vertex   -1.235000e+002 1.113660e+002 1.000000e+001
      vertex   -1.234062e+002 1.113046e+002 7.500000e+000
      vertex   -1.235327e+002 1.113841e+002 7.500000e+000
    endloop
  endfacet
  facet normal 4.338024e-001 9.008839e-001 8.391829e-004
    outer loop
      vertex   -1.235000e+002 1.113660e+002 1.000000e+001
      vertex   -1.235327e+002 1.113841e+002 7.500000e+000
      vertex   -1.236347e+002 1.114309e+002 1.000000e+001
    endloop
  endfacet
  facet normal 2.388078e-002 5.473619e-002 -4.997599e-005
    outer loop
      vertex   -1.236347e+002 1.114309e+002 1.000000e+001
      vertex   -1.235327e+002 1.113841e+002 7.500000e+000
      vertex   -1.236697e+002 1.114439e+002 7.500000e+000
    endloop
  endfacet
  facet normal 2.947522e-001 9.554566e-001 8.402334e-004
    outer loop
      vertex   -1.236347e+002 1.114309e+002 1.000000e+001
      vertex   -1.236697e+002 1.114439e+002 7.500000e+000
      vertex   -1.237775e+002 1.114749e+002 1.000000e+001
    endloop
  endfacet
  facet normal 1.545514e-002 5.768090e-002 -5.009516e-005
    outer loop
      vertex   -1.237775e+002 1.114749e+002 1.000000e+001
      vertex   -1.236697e+002 1.114439e+002 7.500000e+000
      vertex   -1.238141e+002 1.114826e+002 7.500000e+000
    endloop
  endfacet
  facet normal 1.489902e-001 9.887255e-001 8.388035e-004
    outer loop
      vertex   -1.237775e+002 1.114749e+002 1.000000e+001
      vertex   -1.238141e+002 1.114826e+002 7.500000e+000
      vertex   -1.239253e+002 1.114972e+002 1.000000e+001
    endloop
  endfacet
  facet normal 6.685034e-003 5.934225e-002 -5.004101e-005
    outer loop
      vertex   -1.239253e+002 1.114972e+002 1.000000e+001
      vertex   -1.238141e+002 1.114826e+002 7.500000e+000
      vertex   -1.239626e+002 1.114993e+002 7.500000e+000
    endloop
  endfacet
  facet normal 0.000000e+000 9.998881e-001 8.391395e-004
    outer loop
      vertex   -1.239253e+002 1.114972e+002 1.000000e+001
      vertex   -1.239626e+002 1.114993e+002 7.500000e+000
      vertex   -1.240747e+002 1.114972e+002 1.000000e+001
    endloop
  endfacet
  facet normal -2.231393e-003 5.967452e-002 -4.999408e-005
    outer loop
      vertex   -1.240747e+002 1.114972e+002 1.000000e+001
      vertex   -1.239626e+002 1.114993e+002 7.500000e+000
      vertex   -1.241120e+002 1.114937e+002 7.500000e+000
    endloop
  endfacet
  facet normal -1.489902e-001 9.887255e-001 8.399194e-004
    outer loop
      vertex   -1.240747e+002 1.114972e+002 1.000000e+001
      vertex   -1.241120e+002 1.114937e+002 7.500000e+000
      vertex   -1.242225e+002 1.114749e+002 1.000000e+001
    endloop
  endfacet
  facet normal -1.110209e-002 5.867771e-002 -5.009745e-005
    outer loop
      vertex   -1.242225e+002 1.114749e+002 1.000000e+001
      vertex   -1.241120e+002 1.114937e+002 7.500000e+000
      vertex   -1.242588e+002 1.114659e+002 7.500000e+000
    endloop
  endfacet
  facet normal -2.947522e-001 9.554566e-001 8.392101e-004
    outer loop
      vertex   -1.242225e+002 1.114749e+002 1.000000e+001
      vertex   -1.242588e+002 1.114659e+002 7.500000e+000
      vertex   -1.243653e+002 1.114309e+002 1.000000e+001
    endloop
  endfacet
  facet normal -1.972283e-002 5.636706e-002 -4.993754e-005
    outer loop
      vertex   -1.243653e+002 1.114309e+002 1.000000e+001
      vertex   -1.242588e+002 1.114659e+002 7.500000e+000
      vertex   -1.243999e+002 1.114166e+002 7.500000e+000
    endloop
  endfacet
  facet normal -4.338024e-001 9.008839e-001 8.408622e-004
    outer loop
      vertex   -1.243653e+002 1.114309e+002 1.000000e+001
      vertex   -1.243999e+002 1.114166e+002 7.500000e+000
      vertex   -1.245000e+002 1.113660e+002 1.000000e+001
    endloop
  endfacet
  facet normal -2.790461e-002 5.279744e-002 -5.006740e-005
    outer loop
      vertex   -1.245000e+002 1.113660e+002 1.000000e+001
      vertex   -1.243999e+002 1.114166e+002 7.500000e+000
      vertex   -1.245320e+002 1.113467e+002 7.500000e+000
    endloop
  endfacet
  facet normal -5.632769e-001 8.261327e-001 8.394902e-004
    outer loop
      vertex   -1.245000e+002 1.113660e+002 1.000000e+001
      vertex   -1.245320e+002 1.113467e+002 7.500000e+000
      vertex   -1.246235e+002 1.112818e+002 1.000000e+001
    endloop
  endfacet
  facet normal -3.546147e-002 4.804811e-002 -4.998596e-005
    outer loop
      vertex   -1.246235e+002 1.112818e+002 1.000000e+001
      vertex   -1.245320e+002 1.113467e+002 7.500000e+000
      vertex   -1.246523e+002 1.112580e+002 7.500000e+000
    endloop
  endfacet
  facet normal -6.800675e-001 7.329969e-001 8.397639e-004
    outer loop
      vertex   -1.246235e+002 1.112818e+002 1.000000e+001
      vertex   -1.246523e+002 1.112580e+002 7.500000e+000
      vertex   -1.247331e+002 1.111802e+002 1.000000e+001
    endloop
  endfacet
  facet normal -4.222576e-002 4.222576e-002 -5.012763e-005
    outer loop
      vertex   -1.247331e+002 1.111802e+002 1.000000e+001
      vertex   -1.246523e+002 1.112580e+002 7.500000e+000
      vertex   -1.247580e+002 1.111523e+002 7.500000e+000
    endloop
  endfacet
  facet normal -7.817664e-001 6.233920e-001 8.384748e-004
    outer loop
      vertex   -1.247331e+002 1.111802e+002 1.000000e+001
      vertex   -1.247580e+002 1.111523e+002 7.500000e+000
      vertex   -1.248262e+002 1.110633e+002 1.000000e+001
    endloop
  endfacet
  facet normal -4.805116e-002 3.546147e-002 -5.007971e-005
    outer loop
      vertex   -1.248262e+002 1.110633e+002 1.000000e+001
      vertex   -1.247580e+002 1.111523e+002 7.500000e+000
      vertex   -1.248467e+002 1.110320e+002 7.500000e+000
    endloop
  endfacet
  facet normal -8.659229e-001 4.999537e-001 8.382959e-004
    outer loop
      vertex   -1.248262e+002 1.110633e+002 1.000000e+001
      vertex   -1.248467e+002 1.110320e+002 7.500000e+000
      vertex   -1.249010e+002 1.109339e+002 1.000000e+001
    endloop
  endfacet
  facet normal -5.279440e-002 2.790461e-002 -5.005885e-005
    outer loop
      vertex   -1.249010e+002 1.109339e+002 1.000000e+001
      vertex   -1.248467e+002 1.110320e+002 7.500000e+000
      vertex   -1.249166e+002 1.108999e+002 7.500000e+000
    endloop
  endfacet
  facet normal -9.307714e-001 3.652956e-001 8.395531e-004
    outer loop
      vertex   -1.249010e+002 1.109339e+002 1.000000e+001
      vertex   -1.249166e+002 1.108999e+002 7.500000e+000
      vertex   -1.249556e+002 1.107948e+002 1.000000e+001
    endloop
  endfacet
  facet normal -5.636706e-002 1.972283e-002 -5.006236e-005
    outer loop
      vertex   -1.249556e+002 1.107948e+002 1.000000e+001
      vertex   -1.249166e+002 1.108999e+002 7.500000e+000
      vertex   -1.249659e+002 1.107588e+002 7.500000e+000
    endloop
  endfacet
  facet normal -9.748213e-001 2.224853e-001 8.390103e-004
    outer loop
      vertex   -1.249556e+002 1.107948e+002 1.000000e+001
      vertex   -1.249659e+002 1.107588e+002 7.500000e+000
      vertex   -1.249888e+002 1.106490e+002 1.000000e+001
    endloop
  endfacet
  facet normal -5.867771e-002 1.110209e-002 -5.005629e-005
    outer loop
      vertex   -1.249888e+002 1.106490e+002 1.000000e+001
      vertex   -1.249659e+002 1.107588e+002 7.500000e+000
      vertex   -1.249937e+002 1.106120e+002 7.500000e+000
    endloop
  endfacet
  facet normal -9.970920e-001 7.472448e-002 8.391660e-004
    outer loop
      vertex   -1.249888e+002 1.106490e+002 1.000000e+001
      vertex   -1.249937e+002 1.106120e+002 7.500000e+000
      vertex   -1.250000e+002 1.105000e+002 1.000000e+001
    endloop
  endfacet
  facet normal -2.236416e-002 1.255746e-003 0.000000e+000
    outer loop
      vertex   -1.250000e+002 1.105000e+002 1.000000e+001
      vertex   -1.249937e+002 1.106120e+002 7.500000e+000
      vertex   -1.249937e+002 1.106120e+002 5.000000e+000
    endloop
  endfacet
  facet normal -2.238664e-002 1.257008e-003 0.000000e+000
    outer loop
      vertex   -1.250000e+002 1.105000e+002 1.000000e+001
      vertex   -1.249937e+002 1.106120e+002 5.000000e+000
      vertex   -1.250000e+002 1.105000e+002 1.000000e-007
    endloop
  endfacet
  facet normal -2.236416e-002 1.255746e-003 0.000000e+000
    outer loop
      vertex   -1.250000e+002 1.105000e+002 1.000000e-007
      vertex   -1.249937e+002 1.106120e+002 5.000000e+000
      vertex   -1.249937e+002 1.106120e+002 2.500000e+000
    endloop
  endfacet
  facet normal -9.962019e-001 7.465778e-002 -8.384169e-004
    outer loop
      vertex   -1.250000e+002 1.105000e+002 1.000000e-007
      vertex   -1.249937e+002 1.106120e+002 2.500000e+000
      vertex   -1.249888e+002 1.106490e+002 9.999999e-008
    endloop
  endfacet
  facet normal -5.867771e-002 1.110209e-002 5.005629e-005
    outer loop
      vertex   -1.249888e+002 1.106490e+002 9.999999e-008
      vertex   -1.249937e+002 1.106120e+002 2.500000e+000
      vertex   -1.249659e+002 1.107588e+002 2.500000e+000
    endloop
  endfacet
  facet normal -9.739510e-001 2.222866e-001 -8.382613e-004
    outer loop
      vertex   -1.249888e+002 1.106490e+002 9.999999e-008
      vertex   -1.249659e+002 1.107588e+002 2.500000e+000
      vertex   -1.249556e+002 1.107948e+002 9.999999e-008
    endloop
  endfacet
  facet normal -5.636706e-002 1.972283e-002 5.006236e-005
    outer loop
      vertex   -1.249556e+002 1.107948e+002 9.999999e-008
      vertex   -1.249659e+002 1.107588e+002 2.500000e+000
      vertex   -1.249166e+002 1.108999e+002 2.500000e+000
    endloop
  endfacet
  facet normal -9.299404e-001 3.649695e-001 -8.388035e-004
    outer loop
      vertex   -1.249556e+002 1.107948e+002 9.999999e-008
      vertex   -1.249166e+002 1.108999e+002 2.500000e+000
      vertex   -1.249010e+002 1.109339e+002 9.999999e-008
    endloop
  endfacet
  facet normal -5.279440e-002 2.790461e-002 5.005885e-005
    outer loop
      vertex   -1.249010e+002 1.109339e+002 9.999999e-008
      vertex   -1.249166e+002 1.108999e+002 2.500000e+000
      vertex   -1.248467e+002 1.110320e+002 2.500000e+000
    endloop
  endfacet
  facet normal -8.651499e-001 4.995074e-001 -8.375476e-004
    outer loop
      vertex   -1.249010e+002 1.109339e+002 9.999999e-008
      vertex   -1.248467e+002 1.110320e+002 2.500000e+000
      vertex   -1.248262e+002 1.110633e+002 9.999999e-008
    endloop
  endfacet
  facet normal -4.805116e-002 3.546147e-002 5.007971e-005
    outer loop
      vertex   -1.248262e+002 1.110633e+002 9.999999e-008
      vertex   -1.248467e+002 1.110320e+002 2.500000e+000
      vertex   -1.247580e+002 1.111523e+002 2.500000e+000
    endloop
  endfacet
  facet normal -7.810684e-001 6.228354e-001 -8.377261e-004
    outer loop
      vertex   -1.248262e+002 1.110633e+002 9.999999e-008
      vertex   -1.247580e+002 1.111523e+002 2.500000e+000
      vertex   -1.247331e+002 1.111802e+002 9.999999e-008
    endloop
  endfacet
  facet normal -4.222576e-002 4.222576e-002 5.012763e-005
    outer loop
      vertex   -1.247331e+002 1.111802e+002 9.999999e-008
      vertex   -1.247580e+002 1.111523e+002 2.500000e+000
      vertex   -1.246523e+002 1.112580e+002 2.500000e+000
    endloop
  endfacet
  facet normal -6.794604e-001 7.323425e-001 -8.390142e-004
    outer loop
      vertex   -1.247331e+002 1.111802e+002 9.999999e-008
      vertex   -1.246523e+002 1.112580e+002 2.500000e+000
      vertex   -1.246235e+002 1.112818e+002 9.999999e-008
    endloop
  endfacet
  facet normal -3.546147e-002 4.804811e-002 4.998596e-005
    outer loop
      vertex   -1.246235e+002 1.112818e+002 9.999999e-008
      vertex   -1.246523e+002 1.112580e+002 2.500000e+000
      vertex   -1.245320e+002 1.113467e+002 2.500000e+000
    endloop
  endfacet
  facet normal -5.627741e-001 8.253952e-001 -8.387407e-004
    outer loop
      vertex   -1.246235e+002 1.112818e+002 9.999999e-008
      vertex   -1.245320e+002 1.113467e+002 2.500000e+000
      vertex   -1.245000e+002 1.113660e+002 9.999999e-008
    endloop
  endfacet
  facet normal -2.790461e-002 5.279744e-002 5.006740e-005
    outer loop
      vertex   -1.245000e+002 1.113660e+002 9.999999e-008
      vertex   -1.245320e+002 1.113467e+002 2.500000e+000
      vertex   -1.243999e+002 1.114166e+002 2.500000e+000
    endloop
  endfacet
  facet normal -4.334151e-001 9.000797e-001 -8.401116e-004
    outer loop
      vertex   -1.245000e+002 1.113660e+002 9.999999e-008
      vertex   -1.243999e+002 1.114166e+002 2.500000e+000
      vertex   -1.243653e+002 1.114309e+002 9.999999e-008
    endloop
  endfacet
  facet normal -1.972283e-002 5.636706e-002 4.993754e-005
    outer loop
      vertex   -1.243653e+002 1.114309e+002 9.999999e-008
      vertex   -1.243999e+002 1.114166e+002 2.500000e+000
      vertex   -1.242588e+002 1.114659e+002 2.500000e+000
    endloop
  endfacet
  facet normal -2.944891e-001 9.546036e-001 -8.384609e-004
    outer loop
      vertex   -1.243653e+002 1.114309e+002 9.999999e-008
      vertex   -1.242588e+002 1.114659e+002 2.500000e+000
      vertex   -1.242225e+002 1.114749e+002 9.999999e-008
    endloop
  endfacet
  facet normal -1.110209e-002 5.867771e-002 5.009745e-005
    outer loop
      vertex   -1.242225e+002 1.114749e+002 9.999999e-008
      vertex   -1.242588e+002 1.114659e+002 2.500000e+000
      vertex   -1.241120e+002 1.114937e+002 2.500000e+000
    endloop
  endfacet
  facet normal -1.488572e-001 9.878428e-001 -8.391695e-004
    outer loop
      vertex   -1.242225e+002 1.114749e+002 9.999999e-008
      vertex   -1.241120e+002 1.114937e+002 2.500000e+000
      vertex   -1.240747e+002 1.114972e+002 9.999999e-008
    endloop
  endfacet
  facet normal -2.231393e-003 5.967452e-002 4.999408e-005
    outer loop
      vertex   -1.240747e+002 1.114972e+002 9.999999e-008
      vertex   -1.241120e+002 1.114937e+002 2.500000e+000
      vertex   -1.239626e+002 1.114993e+002 2.500000e+000
    endloop
  endfacet
  facet normal 0.000000e+000 9.989955e-001 -8.383904e-004
    outer loop
      vertex   -1.240747e+002 1.114972e+002 9.999999e-008
      vertex   -1.239626e+002 1.114993e+002 2.500000e+000
      vertex   -1.239253e+002 1.114972e+002 9.999999e-008
    endloop
  endfacet
  facet normal 6.685034e-003 5.934225e-002 5.004101e-005
    outer loop
      vertex   -1.239253e+002 1.114972e+002 9.999999e-008
      vertex   -1.239626e+002 1.114993e+002 2.500000e+000
      vertex   -1.238141e+002 1.114826e+002 2.500000e+000
    endloop
  endfacet
  facet normal 1.488572e-001 9.878428e-001 -8.380546e-004
    outer loop
      vertex   -1.239253e+002 1.114972e+002 9.999999e-008
      vertex   -1.238141e+002 1.114826e+002 2.500000e+000
      vertex   -1.237775e+002 1.114749e+002 9.999999e-008
    endloop
  endfacet
  facet normal 1.545514e-002 5.768090e-002 5.009516e-005
    outer loop
      vertex   -1.237775e+002 1.114749e+002 9.999999e-008
      vertex   -1.238141e+002 1.114826e+002 2.500000e+000
      vertex   -1.236697e+002 1.114439e+002 2.500000e+000
    endloop
  endfacet
  facet normal 2.944891e-001 9.546037e-001 -8.394833e-004
    outer loop
      vertex   -1.237775e+002 1.114749e+002 9.999999e-008
      vertex   -1.236697e+002 1.114439e+002 2.500000e+000
      vertex   -1.236347e+002 1.114309e+002 9.999999e-008
    endloop
  endfacet
  facet normal 2.388078e-002 5.473619e-002 4.997599e-005
    outer loop
      vertex   -1.236347e+002 1.114309e+002 9.999999e-008
      vertex   -1.236697e+002 1.114439e+002 2.500000e+000
      vertex   -1.235327e+002 1.113841e+002 2.500000e+000
    endloop
  endfacet
  facet normal 4.334151e-001 9.000796e-001 -8.384337e-004
    outer loop
      vertex   -1.236347e+002 1.114309e+002 9.999999e-008
      vertex   -1.235327e+002 1.113841e+002 2.500000e+000
      vertex   -1.235000e+002 1.113660e+002 9.999999e-008
    endloop
  endfacet
  facet normal 3.177296e-002 5.056300e-002 5.011335e-005
    outer loop
      vertex   -1.235000e+002 1.113660e+002 9.999999e-008
      vertex   -1.235327e+002 1.113841e+002 2.500000e+000
      vertex   -1.234062e+002 1.113046e+002 2.500000e+000
    endloop
  endfacet
  facet normal 5.627741e-001 8.253952e-001 -8.372523e-004
    outer loop
      vertex   -1.235000e+002 1.113660e+002 9.999999e-008
      vertex   -1.234062e+002 1.113046e+002 2.500000e+000
      vertex   -1.233765e+002 1.112818e+002 9.999999e-008
    endloop
  endfacet
  facet normal 3.895183e-002 4.526497e-002 5.008854e-005
    outer loop
      vertex   -1.233765e+002 1.112818e+002 9.999999e-008
      vertex   -1.234062e+002 1.113046e+002 2.500000e+000
      vertex   -1.232929e+002 1.112071e+002 2.500000e+000
    endloop
  endfacet
  facet normal 6.794604e-001 7.323425e-001 -8.371705e-004
    outer loop
      vertex   -1.233765e+002 1.112818e+002 9.999999e-008
      vertex   -1.232929e+002 1.112071e+002 2.500000e+000
      vertex   -1.232669e+002 1.111802e+002 9.999999e-008
    endloop
  endfacet
  facet normal 4.526497e-002 3.895183e-002 5.018978e-005
    outer loop
      vertex   -1.232669e+002 1.111802e+002 9.999999e-008
      vertex   -1.232929e+002 1.112071e+002 2.500000e+000
      vertex   -1.231954e+002 1.110938e+002 2.500000e+000
    endloop
  endfacet
  facet normal 7.810684e-001 6.228355e-001 -8.368067e-004
    outer loop
      vertex   -1.232669e+002 1.111802e+002 9.999999e-008
      vertex   -1.231954e+002 1.110938e+002 2.500000e+000
      vertex   -1.231738e+002 1.110633e+002 9.999999e-008
    endloop
  endfacet
  facet normal 5.056300e-002 3.177297e-002 5.010658e-005
    outer loop
      vertex   -1.231738e+002 1.110633e+002 9.999999e-008
      vertex   -1.231954e+002 1.110938e+002 2.500000e+000
      vertex   -1.231159e+002 1.109673e+002 2.500000e+000
    endloop
  endfacet
  facet normal 8.651499e-001 4.995074e-001 -8.384043e-004
    outer loop
      vertex   -1.231738e+002 1.110633e+002 9.999999e-008
      vertex   -1.231159e+002 1.109673e+002 2.500000e+000
      vertex   -1.230990e+002 1.109339e+002 9.999999e-008
    endloop
  endfacet
  facet normal 5.473619e-002 2.388078e-002 5.007918e-005
    outer loop
      vertex   -1.230990e+002 1.109339e+002 9.999999e-008
      vertex   -1.231159e+002 1.109673e+002 2.500000e+000
      vertex   -1.230561e+002 1.108303e+002 2.500000e+000
    endloop
  endfacet
  facet normal 9.299404e-001 3.649695e-001 -8.381018e-004
    outer loop
      vertex   -1.230990e+002 1.109339e+002 9.999999e-008
      vertex   -1.230561e+002 1.108303e+002 2.500000e+000
      vertex   -1.230444e+002 1.107948e+002 9.999999e-008
    endloop
  endfacet
  facet normal 5.768090e-002 1.545514e-002 5.007326e-005
    outer loop
      vertex   -1.230444e+002 1.107948e+002 9.999999e-008
      vertex   -1.230561e+002 1.108303e+002 2.500000e+000
      vertex   -1.230174e+002 1.106859e+002 2.500000e+000
    endloop
  endfacet
  facet normal 9.739511e-001 2.222867e-001 -8.383104e-004
    outer loop
      vertex   -1.230444e+002 1.107948e+002 9.999999e-008
      vertex   -1.230174e+002 1.106859e+002 2.500000e+000
      vertex   -1.230112e+002 1.106490e+002 9.999999e-008
    endloop
  endfacet
  facet normal 5.934225e-002 6.685034e-003 5.008307e-005
    outer loop
      vertex   -1.230112e+002 1.106490e+002 9.999999e-008
      vertex   -1.230174e+002 1.106859e+002 2.500000e+000
      vertex   -1.230007e+002 1.105374e+002 2.500000e+000
    endloop
  endfacet
  facet normal 9.962019e-001 7.465778e-002 8.369359e-004
    outer loop
      vertex   -1.230112e+002 1.106490e+002 1.000000e+001
      vertex   -1.230000e+002 1.105000e+002 1.000000e+001
      vertex   -1.230007e+002 1.105374e+002 7.500000e+000
    endloop
  endfacet
  facet normal 3.364285e-002 6.315328e-004 -1.694066e-021
    outer loop
      vertex   -1.230007e+002 1.105374e+002 7.500000e+000
      vertex   -1.230000e+002 1.105000e+002 1.000000e+001
      vertex   -1.230000e+002 1.105000e+002 5.500000e+000
    endloop
  endfacet
  facet normal 1.370771e-002 2.573167e-004 2.117582e-022
    outer loop
      vertex   -1.230007e+002 1.105374e+002 7.500000e+000
      vertex   -1.230000e+002 1.105000e+002 5.500000e+000
      vertex   -1.230000e+002 1.105000e+002 9.999999e-008
    endloop
  endfacet
  facet normal 9.937145e-001 1.119441e-001 0.000000e+000
    outer loop
      vertex   -1.230007e+002 1.105374e+002 5.000000e+000
      vertex   -1.230007e+002 1.105374e+002 2.500000e+000
      vertex   -1.230174e+002 1.106859e+002 5.000000e+000
    endloop
  endfacet
  facet normal 5.930268e-002 6.680577e-003 0.000000e+000
    outer loop
      vertex   -1.230174e+002 1.106859e+002 5.000000e+000
      vertex   -1.230007e+002 1.105374e+002 2.500000e+000
      vertex   -1.230174e+002 1.106859e+002 2.500000e+000
    endloop
  endfacet
  facet normal 9.659275e-001 2.588126e-001 0.000000e+000
    outer loop
      vertex   -1.230174e+002 1.106859e+002 5.000000e+000
      vertex   -1.230174e+002 1.106859e+002 2.500000e+000
      vertex   -1.230561e+002 1.108303e+002 5.000000e+000
    endloop
  endfacet
  facet normal 5.764245e-002 1.544484e-002 0.000000e+000
    outer loop
      vertex   -1.230561e+002 1.108303e+002 5.000000e+000
      vertex   -1.230174e+002 1.106859e+002 2.500000e+000
      vertex   -1.230561e+002 1.108303e+002 2.500000e+000
    endloop
  endfacet
  facet normal 9.165645e-001 3.998868e-001 0.000000e+000
    outer loop
      vertex   -1.230561e+002 1.108303e+002 5.000000e+000
      vertex   -1.230561e+002 1.108303e+002 2.500000e+000
      vertex   -1.231159e+002 1.109673e+002 5.000000e+000
    endloop
  endfacet
  facet normal 5.469969e-002 2.386486e-002 0.000000e+000
    outer loop
      vertex   -1.231159e+002 1.109673e+002 5.000000e+000
      vertex   -1.230561e+002 1.108303e+002 2.500000e+000
      vertex   -1.231159e+002 1.109673e+002 2.500000e+000
    endloop
  endfacet
  facet normal 8.467082e-001 5.320576e-001 0.000000e+000
    outer loop
      vertex   -1.231159e+002 1.109673e+002 5.000000e+000
      vertex   -1.231159e+002 1.109673e+002 2.500000e+000
      vertex   -1.231954e+002 1.110938e+002 5.000000e+000
    endloop
  endfacet
  facet normal 5.052929e-002 3.175178e-002 0.000000e+000
    outer loop
      vertex   -1.231954e+002 1.110938e+002 5.000000e+000
      vertex   -1.231159e+002 1.109673e+002 2.500000e+000
      vertex   -1.231954e+002 1.110938e+002 2.500000e+000
    endloop
  endfacet
  facet normal 7.579868e-001 6.522699e-001 0.000000e+000
    outer loop
      vertex   -1.231954e+002 1.110938e+002 5.000000e+000
      vertex   -1.231954e+002 1.110938e+002 2.500000e+000
      vertex   -1.232929e+002 1.112071e+002 5.000000e+000
    endloop
  endfacet
  facet normal 4.523478e-002 3.892586e-002 0.000000e+000
    outer loop
      vertex   -1.232929e+002 1.112071e+002 5.000000e+000
      vertex   -1.231954e+002 1.110938e+002 2.500000e+000
      vertex   -1.232929e+002 1.112071e+002 2.500000e+000
    endloop
  endfacet
  facet normal 6.522699e-001 7.579868e-001 0.000000e+000
    outer loop
      vertex   -1.232929e+002 1.112071e+002 5.000000e+000
      vertex   -1.232929e+002 1.112071e+002 2.500000e+000
      vertex   -1.234062e+002 1.113046e+002 5.000000e+000
    endloop
  endfacet
  facet normal 3.892586e-002 4.523478e-002 0.000000e+000
    outer loop
      vertex   -1.234062e+002 1.113046e+002 5.000000e+000
      vertex   -1.232929e+002 1.112071e+002 2.500000e+000
      vertex   -1.234062e+002 1.113046e+002 2.500000e+000
    endloop
  endfacet
  facet normal 5.320576e-001 8.467082e-001 0.000000e+000
    outer loop
      vertex   -1.234062e+002 1.113046e+002 5.000000e+000
      vertex   -1.234062e+002 1.113046e+002 2.500000e+000
      vertex   -1.235327e+002 1.113841e+002 5.000000e+000
    endloop
  endfacet
  facet normal 3.175178e-002 5.052929e-002 0.000000e+000
    outer loop
      vertex   -1.235327e+002 1.113841e+002 5.000000e+000
      vertex   -1.234062e+002 1.113046e+002 2.500000e+000
      vertex   -1.235327e+002 1.113841e+002 2.500000e+000
    endloop
  endfacet
  facet normal 3.998868e-001 9.165645e-001 0.000000e+000
    outer loop
      vertex   -1.235327e+002 1.113841e+002 5.000000e+000
      vertex   -1.235327e+002 1.113841e+002 2.500000e+000
      vertex   -1.236697e+002 1.114439e+002 5.000000e+000
    endloop
  endfacet
  facet normal 2.386486e-002 5.469969e-002 0.000000e+000
    outer loop
      vertex   -1.236697e+002 1.114439e+002 5.000000e+000
      vertex   -1.235327e+002 1.113841e+002 2.500000e+000
      vertex   -1.236697e+002 1.114439e+002 2.500000e+000
    endloop
  endfacet
  facet normal 2.588126e-001 9.659275e-001 0.000000e+000
    outer loop
      vertex   -1.236697e+002 1.114439e+002 5.000000e+000
      vertex   -1.236697e+002 1.114439e+002 2.500000e+000
      vertex   -1.238141e+002 1.114826e+002 5.000000e+000
    endloop
  endfacet
  facet normal 1.544484e-002 5.764245e-002 0.000000e+000
    outer loop
      vertex   -1.238141e+002 1.114826e+002 5.000000e+000
      vertex   -1.236697e+002 1.114439e+002 2.500000e+000
      vertex   -1.238141e+002 1.114826e+002 2.500000e+000
    endloop
  endfacet
  facet normal 1.119441e-001 9.937145e-001 0.000000e+000
    outer loop
      vertex   -1.238141e+002 1.114826e+002 5.000000e+000
      vertex   -1.238141e+002 1.114826e+002 2.500000e+000
      vertex   -1.239626e+002 1.114993e+002 5.000000e+000
    endloop
  endfacet
  facet normal 6.680577e-003 5.930268e-002 0.000000e+000
    outer loop
      vertex   -1.239626e+002 1.114993e+002 5.000000e+000
      vertex   -1.238141e+002 1.114826e+002 2.500000e+000
      vertex   -1.239626e+002 1.114993e+002 2.500000e+000
    endloop
  endfacet
  facet normal -3.736661e-002 9.993016e-001 0.000000e+000
    outer loop
      vertex   -1.239626e+002 1.114993e+002 5.000000e+000
      vertex   -1.239626e+002 1.114993e+002 2.500000e+000
      vertex   -1.241120e+002 1.114937e+002 5.000000e+000
    endloop
  endfacet
  facet normal -2.229905e-003 5.963474e-002 0.000000e+000
    outer loop
      vertex   -1.241120e+002 1.114937e+002 5.000000e+000
      vertex   -1.239626e+002 1.114993e+002 2.500000e+000
      vertex   -1.241120e+002 1.114937e+002 2.500000e+000
    endloop
  endfacet
  facet normal -1.859063e-001 9.825675e-001 0.000000e+000
    outer loop
      vertex   -1.241120e+002 1.114937e+002 5.000000e+000
      vertex   -1.241120e+002 1.114937e+002 2.500000e+000
      vertex   -1.242588e+002 1.114659e+002 5.000000e+000
    endloop
  endfacet
  facet normal -1.109469e-002 5.863858e-002 0.000000e+000
    outer loop
      vertex   -1.242588e+002 1.114659e+002 5.000000e+000
      vertex   -1.241120e+002 1.114937e+002 2.500000e+000
      vertex   -1.242588e+002 1.114659e+002 2.500000e+000
    endloop
  endfacet
  facet normal -3.302663e-001 9.438878e-001 0.000000e+000
    outer loop
      vertex   -1.242588e+002 1.114659e+002 5.000000e+000
      vertex   -1.242588e+002 1.114659e+002 2.500000e+000
      vertex   -1.243999e+002 1.114166e+002 5.000000e+000
    endloop
  endfacet
  facet normal -1.970968e-002 5.632948e-002 0.000000e+000
    outer loop
      vertex   -1.243999e+002 1.114166e+002 5.000000e+000
      vertex   -1.242588e+002 1.114659e+002 2.500000e+000
      vertex   -1.243999e+002 1.114166e+002 2.500000e+000
    endloop
  endfacet
  facet normal -4.672731e-001 8.841130e-001 0.000000e+000
    outer loop
      vertex   -1.243999e+002 1.114166e+002 5.000000e+000
      vertex   -1.243999e+002 1.114166e+002 2.500000e+000
      vertex   -1.245320e+002 1.113467e+002 5.000000e+000
    endloop
  endfacet
  facet normal -2.788600e-002 5.276224e-002 0.000000e+000
    outer loop
      vertex   -1.245320e+002 1.113467e+002 5.000000e+000
      vertex   -1.243999e+002 1.114166e+002 2.500000e+000
      vertex   -1.245320e+002 1.113467e+002 2.500000e+000
    endloop
  endfacet
  facet normal -5.938240e-001 8.045950e-001 0.000000e+000
    outer loop
      vertex   -1.245320e+002 1.113467e+002 5.000000e+000
      vertex   -1.245320e+002 1.113467e+002 2.500000e+000
      vertex   -1.246523e+002 1.112580e+002 5.000000e+000
    endloop
  endfacet
  facet normal -3.543783e-002 4.801608e-002 0.000000e+000
    outer loop
      vertex   -1.246523e+002 1.112580e+002 5.000000e+000
      vertex   -1.245320e+002 1.113467e+002 2.500000e+000
      vertex   -1.246523e+002 1.112580e+002 2.500000e+000
    endloop
  endfacet
  facet normal -7.071068e-001 7.071068e-001 0.000000e+000
    outer loop
      vertex   -1.246523e+002 1.112580e+002 5.000000e+000
      vertex   -1.246523e+002 1.112580e+002 2.500000e+000
      vertex   -1.247580e+002 1.111523e+002 5.000000e+000
    endloop
  endfacet
  facet normal -4.219761e-002 4.219761e-002 0.000000e+000
    outer loop
      vertex   -1.247580e+002 1.111523e+002 5.000000e+000
      vertex   -1.246523e+002 1.112580e+002 2.500000e+000
      vertex   -1.247580e+002 1.111523e+002 2.500000e+000
    endloop
  endfacet
  facet normal -8.046130e-001 5.937996e-001 0.000000e+000
    outer loop
      vertex   -1.247580e+002 1.111523e+002 5.000000e+000
      vertex   -1.247580e+002 1.111523e+002 2.500000e+000
      vertex   -1.248467e+002 1.110320e+002 5.000000e+000
    endloop
  endfacet
  facet normal -4.801911e-002 3.543782e-002 0.000000e+000
    outer loop
      vertex   -1.248467e+002 1.110320e+002 5.000000e+000
      vertex   -1.247580e+002 1.111523e+002 2.500000e+000
      vertex   -1.248467e+002 1.110320e+002 2.500000e+000
    endloop
  endfacet
  facet normal -8.841019e-001 4.672942e-001 0.000000e+000
    outer loop
      vertex   -1.248467e+002 1.110320e+002 5.000000e+000
      vertex   -1.248467e+002 1.110320e+002 2.500000e+000
      vertex   -1.249166e+002 1.108999e+002 5.000000e+000
    endloop
  endfacet
  facet normal -5.275920e-002 2.788601e-002 0.000000e+000
    outer loop
      vertex   -1.249166e+002 1.108999e+002 5.000000e+000
      vertex   -1.248467e+002 1.110320e+002 2.500000e+000
      vertex   -1.249166e+002 1.108999e+002 2.500000e+000
    endloop
  endfacet
  facet normal -9.438878e-001 3.302663e-001 0.000000e+000
    outer loop
      vertex   -1.249166e+002 1.108999e+002 5.000000e+000
      vertex   -1.249166e+002 1.108999e+002 2.500000e+000
      vertex   -1.249659e+002 1.107588e+002 5.000000e+000
    endloop
  endfacet
  facet normal -5.632948e-002 1.970968e-002 0.000000e+000
    outer loop
      vertex   -1.249659e+002 1.107588e+002 5.000000e+000
      vertex   -1.249166e+002 1.108999e+002 2.500000e+000
      vertex   -1.249659e+002 1.107588e+002 2.500000e+000
    endloop
  endfacet
  facet normal -9.825675e-001 1.859063e-001 0.000000e+000
    outer loop
      vertex   -1.249659e+002 1.107588e+002 5.000000e+000
      vertex   -1.249659e+002 1.107588e+002 2.500000e+000
      vertex   -1.249937e+002 1.106120e+002 5.000000e+000
    endloop
  endfacet
  facet normal -5.863858e-002 1.109469e-002 0.000000e+000
    outer loop
      vertex   -1.249937e+002 1.106120e+002 5.000000e+000
      vertex   -1.249659e+002 1.107588e+002 2.500000e+000
      vertex   -1.249937e+002 1.106120e+002 2.500000e+000
    endloop
  endfacet
  facet normal 9.642061e-001 2.583514e-001 0.000000e+000
    outer loop
      vertex   -1.230561e+002 1.108303e+002 7.500000e+000
      vertex   -1.230174e+002 1.106859e+002 7.500000e+000
      vertex   -1.230174e+002 1.106859e+002 5.000000e+000
    endloop
  endfacet
  facet normal 9.937145e-001 1.119441e-001 -0.000000e+000
    outer loop
      vertex   -1.230174e+002 1.106859e+002 5.000000e+000
      vertex   -1.230174e+002 1.106859e+002 7.500000e+000
      vertex   -1.230007e+002 1.105374e+002 5.000000e+000
    endloop
  endfacet
  facet normal 5.764245e-002 1.544484e-002 0.000000e+000
    outer loop
      vertex   -1.230561e+002 1.108303e+002 7.500000e+000
      vertex   -1.230174e+002 1.106859e+002 5.000000e+000
      vertex   -1.230561e+002 1.108303e+002 5.000000e+000
    endloop
  endfacet
  facet normal 9.149309e-001 3.991740e-001 0.000000e+000
    outer loop
      vertex   -1.231159e+002 1.109673e+002 7.500000e+000
      vertex   -1.230561e+002 1.108303e+002 7.500000e+000
      vertex   -1.230561e+002 1.108303e+002 5.000000e+000
    endloop
  endfacet
  facet normal 5.469969e-002 2.386486e-002 0.000000e+000
    outer loop
      vertex   -1.231159e+002 1.109673e+002 7.500000e+000
      vertex   -1.230561e+002 1.108303e+002 5.000000e+000
      vertex   -1.231159e+002 1.109673e+002 5.000000e+000
    endloop
  endfacet
  facet normal 8.451991e-001 5.311093e-001 0.000000e+000
    outer loop
      vertex   -1.231954e+002 1.110938e+002 7.500000e+000
      vertex   -1.231159e+002 1.109673e+002 7.500000e+000
      vertex   -1.231159e+002 1.109673e+002 5.000000e+000
    endloop
  endfacet
  facet normal 5.052929e-002 3.175178e-002 0.000000e+000
    outer loop
      vertex   -1.231954e+002 1.110938e+002 7.500000e+000
      vertex   -1.231159e+002 1.109673e+002 5.000000e+000
      vertex   -1.231954e+002 1.110938e+002 5.000000e+000
    endloop
  endfacet
  facet normal 7.566358e-001 6.511074e-001 -3.469447e-018
    outer loop
      vertex   -1.232929e+002 1.112071e+002 7.500000e+000
      vertex   -1.231954e+002 1.110938e+002 7.500000e+000
      vertex   -1.231954e+002 1.110938e+002 5.000000e+000
    endloop
  endfacet
  facet normal 4.523478e-002 3.892586e-002 0.000000e+000
    outer loop
      vertex   -1.232929e+002 1.112071e+002 7.500000e+000
      vertex   -1.231954e+002 1.110938e+002 5.000000e+000
      vertex   -1.232929e+002 1.112071e+002 5.000000e+000
    endloop
  endfacet
  facet normal 6.511074e-001 7.566358e-001 3.469447e-018
    outer loop
      vertex   -1.234062e+002 1.113046e+002 7.500000e+000
      vertex   -1.232929e+002 1.112071e+002 7.500000e+000
      vertex   -1.232929e+002 1.112071e+002 5.000000e+000
    endloop
  endfacet
  facet normal 3.892586e-002 4.523478e-002 0.000000e+000
    outer loop
      vertex   -1.234062e+002 1.113046e+002 7.500000e+000
      vertex   -1.232929e+002 1.112071e+002 5.000000e+000
      vertex   -1.234062e+002 1.113046e+002 5.000000e+000
    endloop
  endfacet
  facet normal 5.311093e-001 8.451991e-001 0.000000e+000
    outer loop
      vertex   -1.235327e+002 1.113841e+002 7.500000e+000
      vertex   -1.234062e+002 1.113046e+002 7.500000e+000
      vertex   -1.234062e+002 1.113046e+002 5.000000e+000
    endloop
  endfacet
  facet normal 3.175178e-002 5.052929e-002 0.000000e+000
    outer loop
      vertex   -1.235327e+002 1.113841e+002 7.500000e+000
      vertex   -1.234062e+002 1.113046e+002 5.000000e+000
      vertex   -1.235327e+002 1.113841e+002 5.000000e+000
    endloop
  endfacet
  facet normal 3.991740e-001 9.149309e-001 0.000000e+000
    outer loop
      vertex   -1.236697e+002 1.114439e+002 7.500000e+000
      vertex   -1.235327e+002 1.113841e+002 7.500000e+000
      vertex   -1.235327e+002 1.113841e+002 5.000000e+000
    endloop
  endfacet
  facet normal 2.386486e-002 5.469969e-002 0.000000e+000
    outer loop
      vertex   -1.236697e+002 1.114439e+002 7.500000e+000
      vertex   -1.235327e+002 1.113841e+002 5.000000e+000
      vertex   -1.236697e+002 1.114439e+002 5.000000e+000
    endloop
  endfacet
  facet normal 2.583514e-001 9.642061e-001 0.000000e+000
    outer loop
      vertex   -1.238141e+002 1.114826e+002 7.500000e+000
      vertex   -1.236697e+002 1.114439e+002 7.500000e+000
      vertex   -1.236697e+002 1.114439e+002 5.000000e+000
    endloop
  endfacet
  facet normal 1.544484e-002 5.764245e-002 0.000000e+000
    outer loop
      vertex   -1.238141e+002 1.114826e+002 7.500000e+000
      vertex   -1.236697e+002 1.114439e+002 5.000000e+000
      vertex   -1.238141e+002 1.114826e+002 5.000000e+000
    endloop
  endfacet
  facet normal 1.117446e-001 9.919434e-001 0.000000e+000
    outer loop
      vertex   -1.239626e+002 1.114993e+002 7.500000e+000
      vertex   -1.238141e+002 1.114826e+002 7.500000e+000
      vertex   -1.238141e+002 1.114826e+002 5.000000e+000
    endloop
  endfacet
  facet normal 6.680577e-003 5.930268e-002 0.000000e+000
    outer loop
      vertex   -1.239626e+002 1.114993e+002 7.500000e+000
      vertex   -1.238141e+002 1.114826e+002 5.000000e+000
      vertex   -1.239626e+002 1.114993e+002 5.000000e+000
    endloop
  endfacet
  facet normal -3.730002e-002 9.975206e-001 0.000000e+000
    outer loop
      vertex   -1.241120e+002 1.114937e+002 7.500000e+000
      vertex   -1.239626e+002 1.114993e+002 7.500000e+000
      vertex   -1.239626e+002 1.114993e+002 5.000000e+000
    endloop
  endfacet
  facet normal -2.229905e-003 5.963474e-002 0.000000e+000
    outer loop
      vertex   -1.241120e+002 1.114937e+002 7.500000e+000
      vertex   -1.239626e+002 1.114993e+002 5.000000e+000
      vertex   -1.241120e+002 1.114937e+002 5.000000e+000
    endloop
  endfacet
  facet normal -1.855750e-001 9.808162e-001 0.000000e+000
    outer loop
      vertex   -1.242588e+002 1.114659e+002 7.500000e+000
      vertex   -1.241120e+002 1.114937e+002 7.500000e+000
      vertex   -1.241120e+002 1.114937e+002 5.000000e+000
    endloop
  endfacet
  facet normal -1.109469e-002 5.863858e-002 0.000000e+000
    outer loop
      vertex   -1.242588e+002 1.114659e+002 7.500000e+000
      vertex   -1.241120e+002 1.114937e+002 5.000000e+000
      vertex   -1.242588e+002 1.114659e+002 5.000000e+000
    endloop
  endfacet
  facet normal -3.296776e-001 9.422055e-001 0.000000e+000
    outer loop
      vertex   -1.243999e+002 1.114166e+002 7.500000e+000
      vertex   -1.242588e+002 1.114659e+002 7.500000e+000
      vertex   -1.242588e+002 1.114659e+002 5.000000e+000
    endloop
  endfacet
  facet normal -1.970968e-002 5.632948e-002 0.000000e+000
    outer loop
      vertex   -1.243999e+002 1.114166e+002 7.500000e+000
      vertex   -1.242588e+002 1.114659e+002 5.000000e+000
      vertex   -1.243999e+002 1.114166e+002 5.000000e+000
    endloop
  endfacet
  facet normal -4.664403e-001 8.825372e-001 3.469447e-018
    outer loop
      vertex   -1.245320e+002 1.113467e+002 7.500000e+000
      vertex   -1.243999e+002 1.114166e+002 7.500000e+000
      vertex   -1.243999e+002 1.114166e+002 5.000000e+000
    endloop
  endfacet
  facet normal -2.788600e-002 5.276224e-002 0.000000e+000
    outer loop
      vertex   -1.245320e+002 1.113467e+002 7.500000e+000
      vertex   -1.243999e+002 1.114166e+002 5.000000e+000
      vertex   -1.245320e+002 1.113467e+002 5.000000e+000
    endloop
  endfacet
  facet normal -5.927656e-001 8.031610e-001 0.000000e+000
    outer loop
      vertex   -1.246523e+002 1.112580e+002 7.500000e+000
      vertex   -1.245320e+002 1.113467e+002 7.500000e+000
      vertex   -1.245320e+002 1.113467e+002 5.000000e+000
    endloop
  endfacet
  facet normal -3.543783e-002 4.801608e-002 0.000000e+000
    outer loop
      vertex   -1.246523e+002 1.112580e+002 7.500000e+000
      vertex   -1.245320e+002 1.113467e+002 5.000000e+000
      vertex   -1.246523e+002 1.112580e+002 5.000000e+000
    endloop
  endfacet
  facet normal -7.058465e-001 7.058465e-001 0.000000e+000
    outer loop
      vertex   -1.247580e+002 1.111523e+002 7.500000e+000
      vertex   -1.246523e+002 1.112580e+002 7.500000e+000
      vertex   -1.246523e+002 1.112580e+002 5.000000e+000
    endloop
  endfacet
  facet normal -4.219761e-002 4.219761e-002 0.000000e+000
    outer loop
      vertex   -1.247580e+002 1.111523e+002 7.500000e+000
      vertex   -1.246523e+002 1.112580e+002 5.000000e+000
      vertex   -1.247580e+002 1.111523e+002 5.000000e+000
    endloop
  endfacet
  facet normal -8.031788e-001 5.927412e-001 -3.469447e-018
    outer loop
      vertex   -1.248467e+002 1.110320e+002 7.500000e+000
      vertex   -1.247580e+002 1.111523e+002 7.500000e+000
      vertex   -1.247580e+002 1.111523e+002 5.000000e+000
    endloop
  endfacet
  facet normal -4.801911e-002 3.543782e-002 0.000000e+000
    outer loop
      vertex   -1.248467e+002 1.110320e+002 7.500000e+000
      vertex   -1.247580e+002 1.111523e+002 5.000000e+000
      vertex   -1.248467e+002 1.110320e+002 5.000000e+000
    endloop
  endfacet
  facet normal -8.825263e-001 4.664614e-001 3.469447e-018
    outer loop
      vertex   -1.249166e+002 1.108999e+002 7.500000e+000
      vertex   -1.248467e+002 1.110320e+002 7.500000e+000
      vertex   -1.248467e+002 1.110320e+002 5.000000e+000
    endloop
  endfacet
  facet normal -5.275920e-002 2.788601e-002 0.000000e+000
    outer loop
      vertex   -1.249166e+002 1.108999e+002 7.500000e+000
      vertex   -1.248467e+002 1.110320e+002 5.000000e+000
      vertex   -1.249166e+002 1.108999e+002 5.000000e+000
    endloop
  endfacet
  facet normal -9.422055e-001 3.296776e-001 0.000000e+000
    outer loop
      vertex   -1.249659e+002 1.107588e+002 7.500000e+000
      vertex   -1.249166e+002 1.108999e+002 7.500000e+000
      vertex   -1.249166e+002 1.108999e+002 5.000000e+000
    endloop
  endfacet
  facet normal -5.632948e-002 1.970968e-002 0.000000e+000
    outer loop
      vertex   -1.249659e+002 1.107588e+002 7.500000e+000
      vertex   -1.249166e+002 1.108999e+002 5.000000e+000
      vertex   -1.249659e+002 1.107588e+002 5.000000e+000
    endloop
  endfacet
  facet normal -9.808162e-001 1.855750e-001 0.000000e+000
    outer loop
      vertex   -1.249937e+002 1.106120e+002 7.500000e+000
      vertex   -1.249659e+002 1.107588e+002 7.500000e+000
      vertex   -1.249659e+002 1.107588e+002 5.000000e+000
    endloop
  endfacet
  facet normal -5.863858e-002 1.109469e-002 0.000000e+000
    outer loop
      vertex   -1.249937e+002 1.106120e+002 7.500000e+000
      vertex   -1.249659e+002 1.107588e+002 5.000000e+000
      vertex   -1.249937e+002 1.106120e+002 5.000000e+000
    endloop
  endfacet
  facet normal -0.000000e+000 0.000000e+000 8.682432e-001
    outer loop
      vertex   -1.250000e+002 1.075000e+002 5.500000e+000
      vertex   -1.230000e+002 1.040000e+002 5.500000e+000
      vertex   -1.230000e+002 1.075000e+002 5.500000e+000
    endloop
  endfacet
  facet normal -0.000000e+000 0.000000e+000 3.976063e-001
    outer loop
      vertex   -1.230000e+002 1.075000e+002 5.500000e+000
      vertex   -1.230000e+002 1.040000e+002 5.500000e+000
      vertex   -1.217000e+002 1.105000e+002 5.500000e+000
    endloop
  endfacet
  facet normal 0.000000e+000 0.000000e+000 3.976063e-001
    outer loop
      vertex   -1.230000e+002 1.075000e+002 5.500000e+000
      vertex   -1.217000e+002 1.105000e+002 5.500000e+000
      vertex   -1.230000e+002 1.105000e+002 5.500000e+000
    endloop
  endfacet
  facet normal 0.000000e+000 0.000000e+000 4.961389e-001
    outer loop
      vertex   -1.250000e+002 1.075000e+002 5.500000e+000
      vertex   -1.250000e+002 1.040000e+002 5.500000e+000
      vertex   -1.230000e+002 1.040000e+002 5.500000e+000
    endloop
  endfacet
  facet normal 0.000000e+000 0.000000e+000 1.000000e+000
    outer loop
      vertex   -1.230000e+002 1.000026e+002 5.500000e+000
      vertex   -1.217000e+002 1.000026e+002 5.500000e+000
      vertex   -1.230000e+002 1.040000e+002 5.500000e+000
    endloop
  endfacet
  facet normal -0.000000e+000 0.000000e+000 4.897632e-001
    outer loop
      vertex   -1.230000e+002 1.040000e+002 5.500000e+000
      vertex   -1.217000e+002 1.000026e+002 5.500000e+000
      vertex   -1.217000e+002 1.105000e+002 5.500000e+000
    endloop
  endfacet
  facet normal -0.000000e+000 -1.000000e+000 -0.000000e+000
    outer loop
      vertex   -1.230000e+002 1.000000e+002 1.000000e+001
      vertex   -1.250000e+002 1.000000e+002 1.000000e+001
      vertex   -1.230000e+002 1.000000e+002 9.999999e-008
    endloop
  endfacet
  facet normal 0.000000e+000 -9.805807e-001 0.000000e+000
    outer loop
      vertex   -1.230000e+002 1.000000e+002 9.999999e-008
      vertex   -1.250000e+002 1.000000e+002 1.000000e+001
      vertex   -1.250000e+002 1.000000e+002 9.999999e-008
    endloop
  endfacet
  facet normal -0.000000e+000 1.000000e+000 0.000000e+000
    outer loop
      vertex   -1.250000e+002 1.040000e+002 1.000000e+001
      vertex   -1.230000e+002 1.040000e+002 1.000000e+001
      vertex   -1.250000e+002 1.040000e+002 5.500000e+000
    endloop
  endfacet
  facet normal 0.000000e+000 9.138116e-001 0.000000e+000
    outer loop
      vertex   -1.250000e+002 1.040000e+002 5.500000e+000
      vertex   -1.230000e+002 1.040000e+002 1.000000e+001
      vertex   -1.230000e+002 1.040000e+002 5.500000e+000
    endloop
  endfacet
  facet normal 0.000000e+000 0.000000e+000 1.000000e+000
    outer loop
      vertex   -1.230000e+002 1.040000e+002 1.000000e+001
      vertex   -1.250000e+002 1.040000e+002 1.000000e+001
      vertex   -1.230000e+002 1.000000e+002 1.000000e+001
    endloop
  endfacet
  facet normal 0.000000e+000 0.000000e+000 8.944272e-001
    outer loop
      vertex   -1.230000e+002 1.000000e+002 1.000000e+001
      vertex   -1.250000e+002 1.040000e+002 1.000000e+001
      vertex   -1.250000e+002 1.000000e+002 1.000000e+001
    endloop
  endfacet
  facet normal -1.000000e+000 0.000000e+000 0.000000e+000
    outer loop
      vertex   -1.250000e+002 1.075000e+002 1.000000e+001
      vertex   -1.250000e+002 1.105000e+002 1.000000e+001
      vertex   -1.250000e+002 1.075000e+002 5.500000e+000
    endloop
  endfacet
  facet normal -8.853979e-001 0.000000e+000 0.000000e+000
    outer loop
      vertex   -1.250000e+002 1.075000e+002 5.500000e+000
      vertex   -1.250000e+002 1.105000e+002 1.000000e+001
      vertex   -1.250000e+002 1.105000e+002 1.000000e-007
    endloop
  endfacet
  facet normal -8.778956e-001 -0.000000e+000 -0.000000e+000
    outer loop
      vertex   -1.250000e+002 1.075000e+002 5.500000e+000
      vertex   -1.250000e+002 1.105000e+002 1.000000e-007
      vertex   -1.250000e+002 1.040000e+002 5.500000e+000
    endloop
  endfacet
  facet normal -9.973030e-001 0.000000e+000 -0.000000e+000
    outer loop
      vertex   -1.250000e+002 1.040000e+002 5.500000e+000
      vertex   -1.250000e+002 1.105000e+002 1.000000e-007
      vertex   -1.250000e+002 1.000000e+002 9.999999e-008
    endloop
  endfacet
  facet normal -9.769000e-001 -0.000000e+000 0.000000e+000
    outer loop
      vertex   -1.250000e+002 1.040000e+002 5.500000e+000
      vertex   -1.250000e+002 1.000000e+002 9.999999e-008
      vertex   -1.250000e+002 1.000000e+002 1.000000e+001
    endloop
  endfacet
  facet normal -7.474093e-001 0.000000e+000 0.000000e+000
    outer loop
      vertex   -1.250000e+002 1.000000e+002 1.000000e+001
      vertex   -1.250000e+002 1.040000e+002 1.000000e+001
      vertex   -1.250000e+002 1.040000e+002 5.500000e+000
    endloop
  endfacet
  facet normal -0.000000e+000 -1.000000e+000 -0.000000e+000
    outer loop
      vertex   -1.230000e+002 1.075000e+002 1.000000e+001
      vertex   -1.250000e+002 1.075000e+002 1.000000e+001
      vertex   -1.230000e+002 1.075000e+002 5.500000e+000
    endloop
  endfacet
  facet normal 0.000000e+000 -9.138116e-001 0.000000e+000
    outer loop
      vertex   -1.230000e+002 1.075000e+002 5.500000e+000
      vertex   -1.250000e+002 1.075000e+002 1.000000e+001
      vertex   -1.250000e+002 1.075000e+002 5.500000e+000
    endloop
  endfacet
  facet normal 0.000000e+000 0.000000e+000 1.490286e-001
    outer loop
      vertex   -1.230112e+002 1.106490e+002 1.000000e+001
      vertex   -1.230444e+002 1.107948e+002 1.000000e+001
      vertex   -1.230000e+002 1.105000e+002 1.000000e+001
    endloop
  endfacet
  facet normal 0.000000e+000 0.000000e+000 7.473015e-002
    outer loop
      vertex   -1.230000e+002 1.105000e+002 1.000000e+001
      vertex   -1.230444e+002 1.107948e+002 1.000000e+001
      vertex   -1.230990e+002 1.109339e+002 1.000000e+001
    endloop
  endfacet
  facet normal 0.000000e+000 0.000000e+000 7.473253e-002
    outer loop
      vertex   -1.230000e+002 1.105000e+002 1.000000e+001
      vertex   -1.230990e+002 1.109339e+002 1.000000e+001
      vertex   -1.231738e+002 1.110633e+002 1.000000e+001
    endloop
  endfacet
  facet normal 0.000000e+000 0.000000e+000 3.653085e-001
    outer loop
      vertex   -1.231738e+002 1.110633e+002 1.000000e+001
      vertex   -1.232669e+002 1.111802e+002 1.000000e+001
      vertex   -1.230000e+002 1.105000e+002 1.000000e+001
    endloop
  endfacet
  facet normal 0.000000e+000 0.000000e+000 7.473699e-002
    outer loop
      vertex   -1.230000e+002 1.105000e+002 1.000000e+001
      vertex   -1.232669e+002 1.111802e+002 1.000000e+001
      vertex   -1.233765e+002 1.112818e+002 1.000000e+001
    endloop
  endfacet
  facet normal 0.000000e+000 0.000000e+000 7.472762e-002
    outer loop
      vertex   -1.230000e+002 1.105000e+002 1.000000e+001
      vertex   -1.233765e+002 1.112818e+002 1.000000e+001
      vertex   -1.235000e+002 1.113660e+002 1.000000e+001
    endloop
  endfacet
  facet normal 0.000000e+000 0.000000e+000 5.633512e-001
    outer loop
      vertex   -1.235000e+002 1.113660e+002 1.000000e+001
      vertex   -1.236347e+002 1.114309e+002 1.000000e+001
      vertex   -1.230000e+002 1.105000e+002 1.000000e+001
    endloop
  endfacet
  facet normal 0.000000e+000 0.000000e+000 7.472868e-002
    outer loop
      vertex   -1.230000e+002 1.105000e+002 1.000000e+001
      vertex   -1.236347e+002 1.114309e+002 1.000000e+001
      vertex   -1.237775e+002 1.114749e+002 1.000000e+001
    endloop
  endfacet
  facet normal 0.000000e+000 0.000000e+000 7.473176e-002
    outer loop
      vertex   -1.230000e+002 1.105000e+002 1.000000e+001
      vertex   -1.237775e+002 1.114749e+002 1.000000e+001
      vertex   -1.239253e+002 1.114972e+002 1.000000e+001
    endloop
  endfacet
  facet normal 0.000000e+000 0.000000e+000 6.801742e-001
    outer loop
      vertex   -1.230000e+002 1.105000e+002 1.000000e+001
      vertex   -1.239253e+002 1.114972e+002 1.000000e+001
      vertex   -1.230000e+002 1.075000e+002 1.000000e+001
    endloop
  endfacet
  facet normal 0.000000e+000 0.000000e+000 3.517855e-002
    outer loop
      vertex   -1.230000e+002 1.075000e+002 1.000000e+001
      vertex   -1.239253e+002 1.114972e+002 1.000000e+001
      vertex   -1.240747e+002 1.114972e+002 1.000000e+001
    endloop
  endfacet
  facet normal 0.000000e+000 0.000000e+000 3.196344e-001
    outer loop
      vertex   -1.230000e+002 1.075000e+002 1.000000e+001
      vertex   -1.240747e+002 1.114972e+002 1.000000e+001
      vertex   -1.250000e+002 1.105000e+002 1.000000e+001
    endloop
  endfacet
  facet normal 0.000000e+000 0.000000e+000 7.473176e-002
    outer loop
      vertex   -1.250000e+002 1.105000e+002 1.000000e+001
      vertex   -1.240747e+002 1.114972e+002 1.000000e+001
      vertex   -1.242225e+002 1.114749e+002 1.000000e+001
    endloop
  endfacet
  facet normal 0.000000e+000 0.000000e+000 7.472868e-002
    outer loop
      vertex   -1.250000e+002 1.105000e+002 1.000000e+001
      vertex   -1.242225e+002 1.114749e+002 1.000000e+001
      vertex   -1.243653e+002 1.114309e+002 1.000000e+001
    endloop
  endfacet
  facet normal 0.000000e+000 0.000000e+000 5.000300e-001
    outer loop
      vertex   -1.243653e+002 1.114309e+002 1.000000e+001
      vertex   -1.245000e+002 1.113660e+002 1.000000e+001
      vertex   -1.250000e+002 1.105000e+002 1.000000e+001
    endloop
  endfacet
  facet normal 0.000000e+000 0.000000e+000 7.472762e-002
    outer loop
      vertex   -1.250000e+002 1.105000e+002 1.000000e+001
      vertex   -1.245000e+002 1.113660e+002 1.000000e+001
      vertex   -1.246235e+002 1.112818e+002 1.000000e+001
    endloop
  endfacet
  facet normal 0.000000e+000 0.000000e+000 7.473699e-002
    outer loop
      vertex   -1.250000e+002 1.105000e+002 1.000000e+001
      vertex   -1.246235e+002 1.112818e+002 1.000000e+001
      vertex   -1.247331e+002 1.111802e+002 1.000000e+001
    endloop
  endfacet
  facet normal 0.000000e+000 0.000000e+000 2.947263e-001
    outer loop
      vertex   -1.247331e+002 1.111802e+002 1.000000e+001
      vertex   -1.248262e+002 1.110633e+002 1.000000e+001
      vertex   -1.250000e+002 1.105000e+002 1.000000e+001
    endloop
  endfacet
  facet normal 0.000000e+000 0.000000e+000 7.473253e-002
    outer loop
      vertex   -1.250000e+002 1.105000e+002 1.000000e+001
      vertex   -1.248262e+002 1.110633e+002 1.000000e+001
      vertex   -1.249010e+002 1.109339e+002 1.000000e+001
    endloop
  endfacet
  facet normal 0.000000e+000 0.000000e+000 7.473015e-002
    outer loop
      vertex   -1.250000e+002 1.105000e+002 1.000000e+001
      vertex   -1.249010e+002 1.109339e+002 1.000000e+001
      vertex   -1.249556e+002 1.107948e+002 1.000000e+001
    endloop
  endfacet
  facet normal 0.000000e+000 0.000000e+000 7.472257e-002
    outer loop
      vertex   -1.249556e+002 1.107948e+002 1.000000e+001
      vertex   -1.249888e+002 1.106490e+002 1.000000e+001
      vertex   -1.250000e+002 1.105000e+002 1.000000e+001
    endloop
  endfacet
  facet normal 0.000000e+000 0.000000e+000 5.547002e-001
    outer loop
      vertex   -1.250000e+002 1.105000e+002 1.000000e+001
      vertex   -1.250000e+002 1.075000e+002 1.000000e+001
      vertex   -1.230000e+002 1.075000e+002 1.000000e+001
    endloop
  endfacet
  facet normal 0.000000e+000 -1.000000e+000 0.000000e+000
    outer loop
      vertex   -1.263000e+002 1.000026e+002 5.500000e+000
      vertex   -1.263000e+002 1.000026e+002 1.000000e-007
      vertex   -1.250000e+002 1.000026e+002 5.500000e+000
    endloop
  endfacet
  facet normal 0.000000e+000 -2.300260e-001 -0.000000e+000
    outer loop
      vertex   -1.250000e+002 1.000026e+002 5.500000e+000
      vertex   -1.263000e+002 1.000026e+002 1.000000e-007
      vertex   -1.250000e+002 1.000026e+002 1.000000e-007
    endloop
  endfacet
  facet normal -0.000000e+000 0.000000e+000 1.000000e+000
    outer loop
      vertex   -1.263000e+002 1.105000e+002 5.500000e+000
      vertex   -1.263000e+002 1.000026e+002 5.500000e+000
      vertex   -1.250000e+002 1.105000e+002 5.500000e+000
    endloop
  endfacet
  facet normal 0.000000e+000 0.000000e+000 1.229018e-001
    outer loop
      vertex   -1.250000e+002 1.105000e+002 5.500000e+000
      vertex   -1.263000e+002 1.000026e+002 5.500000e+000
      vertex   -1.250000e+002 1.000026e+002 5.500000e+000
    endloop
  endfacet
  facet normal 0.000000e+000 1.000000e+000 0.000000e+000
    outer loop
      vertex   -1.263000e+002 1.105000e+002 1.000000e-007
      vertex   -1.263000e+002 1.105000e+002 5.500000e+000
      vertex   -1.250000e+002 1.105000e+002 1.000000e-007
    endloop
  endfacet
  facet normal 0.000000e+000 2.300260e-001 -0.000000e+000
    outer loop
      vertex   -1.250000e+002 1.105000e+002 1.000000e-007
      vertex   -1.263000e+002 1.105000e+002 5.500000e+000
      vertex   -1.250000e+002 1.105000e+002 5.500000e+000
    endloop
  endfacet
  facet normal 0.000000e+000 0.000000e+000 -1.000000e+000
    outer loop
      vertex   -1.263000e+002 1.000026e+002 1.000000e-007
      vertex   -1.263000e+002 1.105000e+002 1.000000e-007
      vertex   -1.250000e+002 1.000026e+002 1.000000e-007
    endloop
  endfacet
  facet normal 0.000000e+000 0.000000e+000 -1.229018e-001
    outer loop
      vertex   -1.250000e+002 1.000026e+002 1.000000e-007
      vertex   -1.263000e+002 1.105000e+002 1.000000e-007
      vertex   -1.250000e+002 1.105000e+002 1.000000e-007
    endloop
  endfacet
  facet normal 1.000000e+000 0.000000e+000 0.000000e+000
    outer loop
      vertex   -1.250000e+002 1.000026e+002 1.000000e-007
      vertex   -1.250000e+002 1.105000e+002 1.000000e-007
      vertex   -1.250000e+002 1.000026e+002 5.500000e+000
    endloop
  endfacet
  facet normal 4.640978e-001 -0.000000e+000 0.000000e+000
    outer loop
      vertex   -1.250000e+002 1.000026e+002 5.500000e+000
      vertex   -1.250000e+002 1.105000e+002 1.000000e-007
      vertex   -1.250000e+002 1.105000e+002 5.500000e+000
    endloop
  endfacet
  facet normal -1.000000e+000 0.000000e+000 0.000000e+000
    outer loop
      vertex   -1.263000e+002 1.105000e+002 1.000000e-007
      vertex   -1.263000e+002 1.000026e+002 1.000000e-007
      vertex   -1.263000e+002 1.105000e+002 5.500000e+000
    endloop
  endfacet
  facet normal -4.640978e-001 -0.000000e+000 0.000000e+000
    outer loop
      vertex   -1.263000e+002 1.105000e+002 5.500000e+000
      vertex   -1.263000e+002 1.000026e+002 1.000000e-007
      vertex   -1.263000e+002 1.000026e+002 5.500000e+000
    endloop
  endfacet
endsolid
